<svg width="24" height="24" viewBox="0 0 24 24" fill="#fff" xmlns="http://www.w3.org/2000/svg">
<g clip-path="url(#clip0_2085_387423)">
<path d="M9.78 7.01008C8.26 8.50008 7.02 10.2401 6.13 12.1601L2.26647 11.6175C2.11916 11.5968 2.01566 11.4607 2.04302 11.3145C2.29663 9.95945 3.05197 8.73519 4.16 7.89008C5.34 7.00008 6.82 6.61008 8.29 6.81008H8.32L9.78 7.01008Z"/>
<path d="M16.8699 17.66C16.6899 18.37 16.3699 19.04 15.9299 19.62C15.4899 20.21 14.9399 20.71 14.3099 21.08C13.7564 21.4051 13.1257 21.6375 12.4856 21.757C12.3393 21.7843 12.2032 21.6808 12.1826 21.5334L11.6899 18.02C13.6099 17.16 15.3599 15.96 16.8499 14.48L16.9899 15.48C17.0999 16.21 17.0599 16.95 16.8699 17.66Z"/>
<g opacity="0.4">
<path d="M22 3.18005V3.38005C21.72 6.89005 20.4 10.24 18.19 12.99C17.77 13.51 17.33 14.01 16.85 14.47C15.36 15.96 13.61 17.16 11.69 18.02C11.2099 18.2383 10.7192 18.4354 10.2178 18.6074C9.87028 18.7267 9.48786 18.6283 9.22772 18.3687L5.68854 14.8376C5.42511 14.5748 5.32721 14.1866 5.44975 13.8352C5.64842 13.2656 5.87517 12.7072 6.13001 12.16C7.02001 10.24 8.26001 8.50005 9.78001 7.01005C10.19 6.61005 10.62 6.23005 11.07 5.87005C13.82 3.67005 17.16 2.34005 20.67 2.06005C20.99 2.03005 21.32 2.14005 21.57 2.35005C21.81 2.56005 21.97 2.86005 22 3.18005Z"/>
</g>
<path d="M2.45001 22.6898C2.16001 22.6898 1.88001 22.5898 1.66001 22.3898C1.42001 22.1798 1.28001 21.8898 1.26001 21.5698C1.26001 21.5398 1.26001 21.4598 1.26001 21.4298V21.2398C1.41001 18.9998 1.48001 17.8698 3.46001 16.3998C3.79001 16.1498 4.26001 16.2198 4.51001 16.5498C4.76001 16.8798 4.69001 17.3498 4.36001 17.5998C3.17754 18.4824 2.95689 19.0272 2.83616 20.4107C2.80032 20.8216 3.13763 21.1598 3.55001 21.1598C4.60001 21.1498 4.91001 21.1398 5.69001 20.3598C5.93001 20.1198 6.15001 19.8598 6.35001 19.5898C6.60001 19.2598 7.07001 19.1898 7.40001 19.4398C7.73001 19.6898 7.80001 20.1598 7.55001 20.4898C7.31001 20.8098 7.04001 21.1298 6.75001 21.4198C5.54001 22.6298 4.71001 22.6398 3.57001 22.6598C3.27001 22.6598 2.94001 22.6598 2.54001 22.6898C2.51001 22.6898 2.49001 22.6898 2.46001 22.6898H2.45001Z"/>
<path d="M14.5499 11.7498C15.8499 11.7498 16.9099 10.6898 16.9099 9.38979C16.9099 8.08979 15.8499 7.02979 14.5499 7.02979C13.2499 7.02979 12.1899 8.08979 12.1899 9.38979C12.1899 10.6898 13.2499 11.7498 14.5499 11.7498Z"/>
<path d="M10.16 14.8202C10.74 14.8202 11.2 14.3502 11.2 13.7802C11.2 13.2102 10.73 12.7402 10.16 12.7402C9.59 12.7402 9.12 13.2102 9.12 13.7802C9.12 14.3502 9.59 14.8202 10.16 14.8202Z"/>
</g>
<defs>
<clipPath id="clip0_2085_387423">
<rect width="24" height="24" fill="white"/>
</clipPath>
</defs>
</svg>