<svg width="24" height="24" viewBox="0 0 24 24" fill="#fff" xmlns="http://www.w3.org/2000/svg">
<g clip-path="url(#clip0_4482_6449)">
<path opacity="0.4" d="M17.8899 11.3795C17.8899 12.5395 17.7799 13.6995 17.5499 14.8395C17.2499 16.4995 16.7098 18.1095 15.9398 19.6295C15.9398 19.6295 15.9399 19.6395 15.9299 19.6395C15.5599 20.4395 14.7299 20.9195 13.8499 20.9195H10.1299C9.24988 20.9195 8.41993 20.4395 8.04993 19.6395C8.04993 19.6395 8.04992 19.6295 8.03992 19.6295C7.26992 18.1095 6.72993 16.4995 6.42993 14.8395C6.19993 13.6995 6.08984 12.5395 6.08984 11.3795C6.08984 10.5795 6.13988 9.77953 6.24988 8.98953C6.48988 7.17953 7.4099 5.53953 8.7699 4.31953C10.5999 2.66953 13.3798 2.66953 15.2098 4.31953C16.5598 5.53953 17.4799 7.18953 17.7299 8.98953C17.8399 9.78953 17.8899 10.5795 17.8899 11.3795Z"/>
<path d="M6.43994 14.8398C6.73994 16.4998 7.28005 18.1098 8.05005 19.6298L2.23999 20.9198C2.24999 18.1398 3.98994 15.7698 6.43994 14.8398Z"/>
<path d="M21.75 20.9198L15.9399 19.6298C16.7099 18.1098 17.25 16.4998 17.55 14.8398C18.42 15.1598 19.2 15.6698 19.84 16.3198C21.02 17.4898 21.75 19.1198 21.75 20.9198Z"/>
<path d="M12.0001 13.34C13.1986 13.34 14.1702 12.3685 14.1702 11.17C14.1702 9.97154 13.1986 9 12.0001 9C10.8017 9 9.83008 9.97154 9.83008 11.17C9.83008 12.3685 10.8017 13.34 12.0001 13.34Z"/>
</g>
<defs>
<clipPath id="clip0_4482_6449">
<rect width="24" height="24" fill="white"/>
</clipPath>
</defs>
</svg>