<svg width="24" height="24" viewBox="0 0 24 24" fill="#fff" xmlns="http://www.w3.org/2000/svg">
<g clip-path="url(#clip0_2085_387444)">
<g opacity="0.4">
<path d="M21.8029 7.98477C21.915 7.88638 21.9146 7.71452 21.8091 7.60908L16.391 2.19092C16.2855 2.08548 16.1136 2.08508 16.0153 2.19717C14.8195 3.56009 14.6885 5.52533 15.5991 7.03177C15.6663 7.14279 15.6536 7.2864 15.5619 7.37812L12.94 10C12.65 10.29 12.65 10.77 12.94 11.06C13.09 11.21 13.28 11.28 13.47 11.28C13.66 11.28 13.85 11.21 14 11.06L16.6212 8.43881C16.7133 8.34678 16.8575 8.33442 16.9686 8.40216C18.475 9.32042 20.4401 9.18129 21.8029 7.98477Z"/>
</g>
<path d="M14.83 12.9998C15.43 12.3998 15.73 12.0998 15.73 11.7198C15.73 11.3398 15.43 11.0398 14.83 10.4398L13.55 9.15977C12.95 8.55977 12.65 8.25977 12.27 8.25977C11.89 8.25977 11.6 8.55977 10.99 9.15977L6.77999 13.3698C5.71999 14.4298 5.71999 16.1398 6.77999 17.1998C7.83999 18.2598 9.54998 18.2598 10.61 17.1998L14.82 12.9898L14.83 12.9998Z"/>
<g opacity="0.4">
<path d="M21.02 16.8599L19.63 15.4699C18.98 14.8199 18.65 14.4899 18.24 14.4899C17.83 14.4899 17.51 14.8199 16.85 15.4699C16.7617 15.5583 16.6184 15.5583 16.53 15.4699L14.01 12.9499C13.72 12.6599 13.24 12.6599 12.95 12.9499C12.66 13.2399 12.66 13.7199 12.95 14.0099L15.47 16.5299C15.5584 16.6183 15.5584 16.7616 15.47 16.8499C14.82 17.4999 14.49 17.8299 14.49 18.2399C14.49 18.6499 14.82 18.9699 15.47 19.6299L16.86 21.0199C17.51 21.6699 17.84 21.9999 18.25 21.9999C18.66 21.9999 18.98 21.6699 19.64 21.0199L21.03 19.6299C21.68 18.9799 22.01 18.6499 22.01 18.2399C22.01 17.8299 21.68 17.5099 21.03 16.8499L21.02 16.8599Z"/>
</g>
<g opacity="0.4">
<path d="M11.37 10.31L8.52999 7.47C8.44162 7.38163 8.44162 7.23837 8.52999 7.15C9.17999 6.5 9.50999 6.17 9.50999 5.76C9.50999 5.35 9.17999 5.03 8.52999 4.37L7.13999 2.98C6.48999 2.33 6.15999 2 5.74999 2C5.33999 2 5.01999 2.33 4.35999 2.98L2.96999 4.37C2.31999 5.02 1.98999 5.35 1.98999 5.76C1.98999 6.17 2.31999 6.49 2.96999 7.15L4.35999 8.54C5.00999 9.19 5.33999 9.52 5.74999 9.52C6.15999 9.52 6.47999 9.19 7.13999 8.54C7.22836 8.45163 7.37162 8.45163 7.45999 8.54L10.3 11.38C10.45 11.53 10.64 11.6 10.83 11.6C11.02 11.6 11.21 11.53 11.36 11.38C11.65 11.09 11.65 10.61 11.36 10.32L11.37 10.31Z"/>
</g>
</g>
<defs>
<clipPath id="clip0_2085_387444">
<rect width="24" height="24" fill="white"/>
</clipPath>
</defs>
</svg>